<?xml version="1.0" encoding="utf-8"?>
<!-- Generator: Adobe Illustrator 25.0.1, SVG Export Plug-In . SVG Version: 6.00 Build 0)  -->
<svg version="1.1" xmlns="http://www.w3.org/2000/svg" xmlns:xlink="http://www.w3.org/1999/xlink" x="0px" y="0px"
	 viewBox="0 0 13.35 13.35" style="enable-background:new 0 0 13.35 13.35;" xml:space="preserve">
<style type="text/css">
	.st0{fill:url(#SVGID_1_);}
	.st1{clip-path:url(#SVGID_3_);}
	.st2{fill:#EA7127;}
	.st3{fill:#EA7236;}
	.st4{fill:url(#SVGID_4_);}
	.st5{clip-path:url(#SVGID_6_);}
	.st6{fill:#FFFEFC;}
	.st7{fill:#FFFFFF;}
	.st8{fill:#F6AA29;}
	.st9{fill:#211E1F;}
	.st10{fill:#CECFCF;}
	.st11{fill:#808081;}
	.st12{fill:#EF7126;}
	.st13{fill:#14AD4B;}
	.st14{fill:#EE6F25;}
	.st15{fill:#0668AF;}
	.st16{fill:#E16B26;}
	.st17{fill:#424E9C;}
	.st18{fill:#5969CF;}
	.st19{clip-path:url(#SVGID_8_);}
	.st20{fill:#FF930F;}
	.st21{fill:#AA3330;}
	.st22{fill:#F28F0E;}
	.st23{fill:#F9362D;}
	.st24{fill:#FCE0E0;}
	.st25{fill:#FFB10F;}
	.st26{fill:#FFDC01;}
	.st27{fill:#FFF375;}
	.st28{fill:#6B7384;}
	.st29{fill:#892020;}
	.st30{fill:#FF740D;}
	.st31{fill:#798093;}
	.st32{fill:#9EA8BA;}
	.st33{fill:#BAC6D8;}
	.st34{fill:#C95506;}
	.st35{fill:#8E2323;}
	.st36{fill:#7F0B0B;}
	.st37{fill:#EA7603;}
	.st38{fill:#FF9B50;}
	.st39{opacity:0.69;}
	.st40{fill:#FFB448;}
	.st41{fill:#4D4D4D;}
	.st42{fill:#EC7126;}
	.st43{fill:#FFFFFF;stroke:#D7D7D7;stroke-width:1.0983;stroke-miterlimit:10;}
	.st44{fill:#E3E3E3;stroke:#D7D7D7;stroke-width:1.0983;stroke-miterlimit:10;}
	.st45{fill:#808080;}
	.st46{fill:#FFFFFF;stroke:#D7D7D7;stroke-width:1.2915;stroke-miterlimit:10;}
	.st47{clip-path:url(#SVGID_10_);}
	.st48{fill:#B4360E;}
	.st49{fill:none;stroke:#FFFFFF;stroke-miterlimit:10;}
	.st50{fill:#F4A82B;}
	.st51{fill:#221F1F;}
	.st52{fill:#CACBCC;}
	.st53{fill:#11AA4B;}
	.st54{fill:#EC6F24;}
	.st55{fill:#0767AC;}
	.st56{fill:#E3E3E3;}
	.st57{fill:#32BA00;}
	.st58{fill:none;stroke:#D7D7D7;stroke-width:1.0983;stroke-miterlimit:10;}
	.st59{fill:#C14F10;}
	.st60{fill:#C20C04;}
	.st61{opacity:0.08;}
	.st62{fill:#FFB700;}
	.st63{fill:#FFDB14;}
	.st64{fill:none;stroke:#F2AD00;stroke-width:1.5;stroke-linecap:round;stroke-linejoin:round;stroke-dasharray:1.0126,6.0756;}
	.st65{fill:#FF2119;}
	.st66{fill:none;stroke:#F2AD00;stroke-linecap:round;stroke-linejoin:round;stroke-miterlimit:10;}
	.st67{fill:#E3E4E6;stroke:#D1D1D1;stroke-width:0.8392;stroke-miterlimit:10;}
	.st68{fill:none;stroke:#C7C7C7;stroke-linecap:round;stroke-linejoin:round;stroke-miterlimit:10;}
	.st69{fill:#E3E4E6;stroke:#000000;stroke-width:1.2897;stroke-miterlimit:10;}
	.st70{clip-path:url(#SVGID_12_);}
</style>
<g id="Layer_1">
	<g>
		<g>
			<g>
				<g>
					<circle class="st42" cx="6.67" cy="6.67" r="6.67"/>
					<g>
						<g>
							<path class="st7" d="M6.61,2.73c0.28,0,0.54,0.03,0.78,0.08c0.24,0.05,0.48,0.13,0.72,0.23l-0.27,1.1
								C7.62,4.06,7.42,4.01,7.24,3.97C7.06,3.93,6.86,3.91,6.62,3.91c-0.46,0-0.82,0.17-1.1,0.51C5.25,4.76,5.12,5.24,5.14,5.84
								l0.01,0.03c0.17-0.18,0.38-0.31,0.64-0.41C6.05,5.35,6.34,5.3,6.66,5.3c0.67,0,1.2,0.24,1.58,0.71
								C8.62,6.5,8.81,7.1,8.81,7.84c0,0.76-0.23,1.38-0.7,1.87c-0.47,0.49-1.08,0.74-1.82,0.74c-0.79,0-1.44-0.27-1.94-0.81
								c-0.5-0.54-0.75-1.28-0.75-2.24V5.94c0-0.98,0.28-1.77,0.85-2.35C5.01,3.02,5.74,2.73,6.61,2.73z M6.27,6.44
								c-0.28,0-0.52,0.04-0.71,0.13S5.21,6.79,5.1,6.94v0.5c0,0.59,0.11,1.05,0.32,1.37c0.21,0.32,0.5,0.48,0.86,0.48
								c0.31,0,0.56-0.14,0.75-0.42c0.19-0.28,0.28-0.63,0.28-1.03c0-0.42-0.09-0.75-0.28-1.01C6.84,6.57,6.58,6.44,6.27,6.44z"/>
						</g>
					</g>
				</g>
			</g>
		</g>
	</g>
</g>
<g id="Layer_2">
</g>
<g id="Layer_3">
</g>
<g id="Layer_4">
</g>
</svg>
