<?xml version="1.0" encoding="utf-8"?>
<!-- Generator: Adobe Illustrator 25.0.1, SVG Export Plug-In . SVG Version: 6.00 Build 0)  -->
<svg version="1.1" xmlns="http://www.w3.org/2000/svg" xmlns:xlink="http://www.w3.org/1999/xlink" x="0px" y="0px"
	 viewBox="0 0 13.35 13.35" style="enable-background:new 0 0 13.35 13.35;" xml:space="preserve">
<style type="text/css">
	.st0{fill:url(#SVGID_1_);}
	.st1{clip-path:url(#SVGID_3_);}
	.st2{fill:#EA7127;}
	.st3{fill:#EA7236;}
	.st4{fill:url(#SVGID_4_);}
	.st5{clip-path:url(#SVGID_6_);}
	.st6{fill:#FFFEFC;}
	.st7{fill:#FFFFFF;}
	.st8{fill:#F6AA29;}
	.st9{fill:#211E1F;}
	.st10{fill:#CECFCF;}
	.st11{fill:#808081;}
	.st12{fill:#EF7126;}
	.st13{fill:#14AD4B;}
	.st14{fill:#EE6F25;}
	.st15{fill:#0668AF;}
	.st16{fill:#E16B26;}
	.st17{fill:#424E9C;}
	.st18{fill:#5969CF;}
	.st19{clip-path:url(#SVGID_8_);}
	.st20{fill:#FF930F;}
	.st21{fill:#AA3330;}
	.st22{fill:#F28F0E;}
	.st23{fill:#F9362D;}
	.st24{fill:#FCE0E0;}
	.st25{fill:#FFB10F;}
	.st26{fill:#FFDC01;}
	.st27{fill:#FFF375;}
	.st28{fill:#6B7384;}
	.st29{fill:#892020;}
	.st30{fill:#FF740D;}
	.st31{fill:#798093;}
	.st32{fill:#9EA8BA;}
	.st33{fill:#BAC6D8;}
	.st34{fill:#C95506;}
	.st35{fill:#8E2323;}
	.st36{fill:#7F0B0B;}
	.st37{fill:#EA7603;}
	.st38{fill:#FF9B50;}
	.st39{opacity:0.69;}
	.st40{fill:#FFB448;}
	.st41{fill:#4D4D4D;}
	.st42{fill:#EC7126;}
	.st43{fill:#FFFFFF;stroke:#D7D7D7;stroke-width:1.0983;stroke-miterlimit:10;}
	.st44{fill:#E3E3E3;stroke:#D7D7D7;stroke-width:1.0983;stroke-miterlimit:10;}
	.st45{fill:#808080;}
	.st46{fill:#FFFFFF;stroke:#D7D7D7;stroke-width:1.2915;stroke-miterlimit:10;}
	.st47{clip-path:url(#SVGID_10_);}
	.st48{fill:#B4360E;}
	.st49{fill:none;stroke:#FFFFFF;stroke-miterlimit:10;}
	.st50{fill:#F4A82B;}
	.st51{fill:#221F1F;}
	.st52{fill:#CACBCC;}
	.st53{fill:#11AA4B;}
	.st54{fill:#EC6F24;}
	.st55{fill:#0767AC;}
	.st56{fill:#E3E3E3;}
	.st57{fill:#32BA00;}
	.st58{fill:none;stroke:#D7D7D7;stroke-width:1.0983;stroke-miterlimit:10;}
	.st59{fill:#C14F10;}
	.st60{fill:#C20C04;}
	.st61{opacity:0.08;}
	.st62{fill:#FFB700;}
	.st63{fill:#FFDB14;}
	.st64{fill:none;stroke:#F2AD00;stroke-width:1.5;stroke-linecap:round;stroke-linejoin:round;stroke-dasharray:1.0126,6.0756;}
	.st65{fill:#FF2119;}
	.st66{fill:none;stroke:#F2AD00;stroke-linecap:round;stroke-linejoin:round;stroke-miterlimit:10;}
	.st67{fill:#E3E4E6;stroke:#D1D1D1;stroke-width:0.8392;stroke-miterlimit:10;}
	.st68{fill:none;stroke:#C7C7C7;stroke-linecap:round;stroke-linejoin:round;stroke-miterlimit:10;}
	.st69{fill:#E3E4E6;stroke:#000000;stroke-width:1.2897;stroke-miterlimit:10;}
	.st70{clip-path:url(#SVGID_12_);}
</style>
<g id="Layer_1">
	<g>
		<g>
			<g>
				<g>
					<circle class="st42" cx="6.67" cy="6.67" r="6.67"/>
					<g>
						<g>
							<path class="st7" d="M3.79,7.02l0.43-4.18h4.19v1.21H5.45L5.25,5.77c0.14-0.1,0.3-0.19,0.5-0.26c0.2-0.07,0.41-0.1,0.65-0.11
								C7.12,5.4,7.68,5.62,8.08,6.07c0.4,0.45,0.6,1.07,0.6,1.87c0,0.72-0.22,1.32-0.65,1.8c-0.44,0.48-1.06,0.72-1.88,0.72
								c-0.69,0-1.28-0.19-1.77-0.57s-0.73-0.9-0.71-1.56L3.66,8.3l1.45-0.07c0,0.33,0.09,0.59,0.28,0.78
								C5.58,9.2,5.83,9.29,6.14,9.29c0.35,0,0.61-0.12,0.78-0.37c0.17-0.25,0.25-0.57,0.25-0.98c0-0.43-0.09-0.78-0.27-1.04
								C6.72,6.64,6.45,6.51,6.1,6.51c-0.29,0-0.51,0.05-0.66,0.16C5.29,6.78,5.18,6.92,5.11,7.1L3.79,7.02z"/>
						</g>
					</g>
				</g>
			</g>
		</g>
	</g>
</g>
<g id="Layer_2">
</g>
<g id="Layer_3">
</g>
<g id="Layer_4">
</g>
</svg>
