<?xml version="1.0" encoding="utf-8"?>
<!-- Generator: Adobe Illustrator 25.0.1, SVG Export Plug-In . SVG Version: 6.00 Build 0)  -->
<svg version="1.1" xmlns="http://www.w3.org/2000/svg" xmlns:xlink="http://www.w3.org/1999/xlink" x="0px" y="0px"
	 viewBox="0 0 15.6 22.96" style="enable-background:new 0 0 15.6 22.96;" xml:space="preserve">
<style type="text/css">
	.st0{fill:url(#SVGID_1_);}
	.st1{clip-path:url(#SVGID_3_);}
	.st2{fill:#EA7127;}
	.st3{fill:#EA7236;}
	.st4{fill:url(#SVGID_4_);}
	.st5{clip-path:url(#SVGID_6_);}
	.st6{fill:#FFFEFC;}
	.st7{fill:#FFFFFF;}
	.st8{fill:#F6AA29;}
	.st9{fill:#211E1F;}
	.st10{fill:#CECFCF;}
	.st11{fill:#808081;}
	.st12{fill:#EF7126;}
	.st13{fill:#14AD4B;}
	.st14{fill:#EE6F25;}
	.st15{fill:#0668AF;}
	.st16{fill:#E16B26;}
	.st17{fill:#424E9C;}
	.st18{fill:#5969CF;}
	.st19{clip-path:url(#SVGID_8_);}
	.st20{fill:#FF930F;}
	.st21{fill:#AA3330;}
	.st22{fill:#F28F0E;}
	.st23{fill:#F9362D;}
	.st24{fill:#FCE0E0;}
	.st25{fill:#FFB10F;}
	.st26{fill:#FFDC01;}
	.st27{fill:#FFF375;}
	.st28{fill:#6B7384;}
	.st29{fill:#892020;}
	.st30{fill:#FF740D;}
	.st31{fill:#798093;}
	.st32{fill:#9EA8BA;}
	.st33{fill:#BAC6D8;}
	.st34{fill:#C95506;}
	.st35{fill:#8E2323;}
	.st36{fill:#7F0B0B;}
	.st37{fill:#EA7603;}
	.st38{fill:#FF9B50;}
	.st39{opacity:0.69;}
	.st40{fill:#FFB448;}
	.st41{fill:#4D4D4D;}
	.st42{fill:#EC7126;}
	.st43{fill:#FFFFFF;stroke:#D7D7D7;stroke-width:1.0983;stroke-miterlimit:10;}
	.st44{fill:#E3E3E3;stroke:#D7D7D7;stroke-width:1.0983;stroke-miterlimit:10;}
	.st45{fill:#808080;}
	.st46{fill:#FFFFFF;stroke:#D7D7D7;stroke-width:1.2915;stroke-miterlimit:10;}
	.st47{clip-path:url(#SVGID_10_);}
	.st48{fill:#B4360E;}
	.st49{fill:none;stroke:#FFFFFF;stroke-miterlimit:10;}
	.st50{fill:#F4A82B;}
	.st51{fill:#221F1F;}
	.st52{fill:#CACBCC;}
	.st53{fill:#11AA4B;}
	.st54{fill:#EC6F24;}
	.st55{fill:#0767AC;}
	.st56{fill:#E3E3E3;}
	.st57{fill:#32BA00;}
	.st58{fill:none;stroke:#D7D7D7;stroke-width:1.0983;stroke-miterlimit:10;}
	.st59{fill:#C14F10;}
	.st60{fill:#C20C04;}
	.st61{opacity:0.08;}
	.st62{fill:#FFB700;}
	.st63{fill:#FFDB14;}
	.st64{fill:none;stroke:#F2AD00;stroke-width:1.5;stroke-linecap:round;stroke-linejoin:round;stroke-dasharray:1.0126,6.0756;}
	.st65{fill:#FF2119;}
	.st66{fill:none;stroke:#F2AD00;stroke-linecap:round;stroke-linejoin:round;stroke-miterlimit:10;}
	.st67{fill:#E3E4E6;stroke:#D1D1D1;stroke-width:0.8392;stroke-miterlimit:10;}
	.st68{fill:none;stroke:#C7C7C7;stroke-linecap:round;stroke-linejoin:round;stroke-miterlimit:10;}
	.st69{fill:#E3E4E6;stroke:#000000;stroke-width:1.2897;stroke-miterlimit:10;}
	.st70{clip-path:url(#SVGID_12_);}
</style>
<g id="Layer_1">
	<g>
		<g>
			<g>
				<g>
					<polygon class="st35" points="13.2,0 10.61,6.33 5.25,6.33 7.63,0 					"/>
					<path class="st34" d="M10.86,5.24H5.05c-0.38,0-0.69,0.31-0.69,0.69v3.7h7.2v-3.7C11.55,5.55,11.24,5.24,10.86,5.24z
						 M11.04,6.59H4.73V6.31c0-0.31,0.25-0.56,0.56-0.56h5.19c0.31,0,0.56,0.25,0.56,0.56V6.59z"/>
					<polygon class="st23" points="2.75,0 5.25,6.33 10.61,6.33 8.17,0 					"/>
					<g>
						<polygon class="st36" points="6.43,6.33 3.74,0 3.44,0 6.13,6.33 						"/>
						<polygon class="st36" points="7.42,6.33 4.73,0 4.42,0 7.11,6.33 						"/>
						<polygon class="st36" points="8.55,6.33 5.86,0 5.55,0 8.24,6.33 						"/>
						<polygon class="st36" points="9.63,6.33 6.94,0 6.63,0 9.32,6.33 						"/>
					</g>
					
						<ellipse transform="matrix(0.1602 -0.9871 0.9871 0.1602 -8.4115 20.4332)" class="st34" cx="7.8" cy="15.16" rx="7.8" ry="7.8"/>
					<path class="st37" d="M13.2,9.52c1.34,1.4,2.17,3.3,2.17,5.39c0,4.31-3.49,7.8-7.8,7.8c-2.09,0-3.99-0.82-5.39-2.17
						c1.42,1.48,3.42,2.41,5.64,2.41c4.31,0,7.8-3.49,7.8-7.8C15.6,12.94,14.68,10.94,13.2,9.52z"/>
					
						<ellipse transform="matrix(0.1602 -0.9871 0.9871 0.1602 -8.4115 20.4332)" class="st38" cx="7.8" cy="15.16" rx="6.36" ry="6.36"/>
					<g class="st39">
						<g>
							<path class="st40" d="M7.18,19.66c0.25,0.2,0.31,0.52,0.31,0.52s-0.34,0.01-0.59-0.19s-0.32-0.52-0.32-0.52
								S6.93,19.46,7.18,19.66z"/>
							<path class="st40" d="M6.88,20.17c0.3-0.1,0.62,0.01,0.62,0.01s-0.17,0.29-0.47,0.39c-0.3,0.1-0.62-0.01-0.62-0.01
								S6.57,20.27,6.88,20.17z"/>
						</g>
						<g>
							<path class="st40" d="M6.21,19.39c0.22,0.23,0.24,0.56,0.24,0.56s-0.33-0.04-0.55-0.27c-0.22-0.23-0.24-0.56-0.24-0.56
								S5.99,19.17,6.21,19.39z"/>
							<path class="st40" d="M5.84,19.86c0.31-0.06,0.61,0.1,0.61,0.1s-0.21,0.26-0.52,0.32c-0.31,0.06-0.61-0.1-0.61-0.1
								S5.52,19.92,5.84,19.86z"/>
							<path class="st40" d="M5.44,19.02c0.18,0.26,0.15,0.59,0.15,0.59s-0.32-0.09-0.5-0.35C4.9,19,4.94,18.67,4.94,18.67
								S5.26,18.76,5.44,19.02z"/>
							<path class="st40" d="M5,19.42c0.32-0.01,0.59,0.19,0.59,0.19s-0.25,0.22-0.57,0.24c-0.32,0.01-0.59-0.19-0.59-0.19
								S4.68,19.43,5,19.42z"/>
							<path class="st40" d="M4.73,18.44c0.11,0.29,0,0.61,0,0.61s-0.29-0.16-0.4-0.46c-0.11-0.29,0-0.61,0-0.61
								S4.62,18.15,4.73,18.44z"/>
							<path class="st40" d="M4.2,18.72c0.31,0.06,0.52,0.32,0.52,0.32s-0.3,0.16-0.61,0.09c-0.31-0.06-0.52-0.32-0.52-0.32
								S3.89,18.66,4.2,18.72z"/>
							<path class="st40" d="M4.19,17.77c0.04,0.31-0.15,0.59-0.15,0.59s-0.25-0.23-0.28-0.54c-0.04-0.31,0.15-0.59,0.15-0.59
								S4.15,17.46,4.19,17.77z"/>
							<path class="st40" d="M3.61,17.93c0.29,0.13,0.43,0.43,0.43,0.43s-0.33,0.08-0.61-0.05C3.14,18.18,3,17.88,3,17.88
								S3.32,17.79,3.61,17.93z"/>
						</g>
						<g>
							<path class="st40" d="M3.73,16.93c-0.03,0.31-0.26,0.55-0.26,0.55S3.27,17.21,3.3,16.9c0.03-0.31,0.26-0.55,0.26-0.55
								S3.75,16.62,3.73,16.93z"/>
							<path class="st40" d="M3.13,16.97c0.26,0.19,0.33,0.51,0.33,0.51s-0.34,0.02-0.59-0.17c-0.26-0.19-0.33-0.51-0.33-0.51
								S2.87,16.78,3.13,16.97z"/>
							<path class="st40" d="M3.49,16.13c-0.08,0.3-0.35,0.5-0.35,0.5s-0.15-0.3-0.07-0.6c0.08-0.3,0.35-0.5,0.35-0.5
								S3.57,15.83,3.49,16.13z"/>
							<path class="st40" d="M2.89,16.08c0.22,0.22,0.25,0.56,0.25,0.56s-0.34-0.03-0.56-0.26c-0.22-0.22-0.25-0.56-0.25-0.56
								S2.67,15.85,2.89,16.08z"/>
							<path class="st40" d="M3.46,15.24C3.31,15.52,3,15.64,3,15.64s-0.07-0.32,0.08-0.6c0.15-0.28,0.46-0.4,0.46-0.4
								S3.61,14.96,3.46,15.24z"/>
							<path class="st40" d="M2.9,15.05c0.16,0.27,0.1,0.6,0.1,0.6s-0.32-0.11-0.48-0.38c-0.16-0.27-0.1-0.6-0.1-0.6
								S2.74,14.77,2.9,15.05z"/>
							<path class="st40" d="M3.62,14.34c-0.21,0.23-0.54,0.28-0.54,0.28s0.01-0.33,0.22-0.57c0.21-0.23,0.54-0.28,0.54-0.28
								S3.83,14.11,3.62,14.34z"/>
							<path class="st40" d="M3.12,14.02c0.09,0.3-0.04,0.6-0.04,0.6s-0.28-0.18-0.37-0.48c-0.09-0.3,0.04-0.6,0.04-0.6
								S3.03,13.72,3.12,14.02z"/>
						</g>
						<path class="st40" d="M3.95,13.6c-0.26,0.18-0.6,0.15-0.6,0.15s0.09-0.32,0.35-0.5c0.26-0.18,0.6-0.15,0.6-0.15
							S4.21,13.42,3.95,13.6z"/>
						<path class="st40" d="M3.53,13.18c0.02,0.31-0.18,0.58-0.18,0.58S3.12,13.51,3.1,13.2c-0.02-0.31,0.18-0.58,0.18-0.58
							S3.52,12.86,3.53,13.18z"/>
						<path class="st40" d="M4.36,12.93c-0.29,0.14-0.61,0.06-0.61,0.06s0.14-0.3,0.42-0.44c0.29-0.14,0.61-0.06,0.61-0.06
							S4.64,12.79,4.36,12.93z"/>
						<path class="st40" d="M4.02,12.45c-0.03,0.31-0.27,0.54-0.27,0.54s-0.19-0.27-0.16-0.59c0.03-0.31,0.27-0.54,0.27-0.54
							S4.05,12.14,4.02,12.45z"/>
						<g>
							<path class="st40" d="M8.9,19.62c-0.25,0.2-0.32,0.52-0.32,0.52s0.34,0.01,0.59-0.19c0.25-0.2,0.31-0.52,0.31-0.52
								S9.15,19.42,8.9,19.62z"/>
							<path class="st40" d="M9.2,20.12c-0.3-0.1-0.62,0.01-0.62,0.01s0.17,0.29,0.47,0.39c0.3,0.1,0.62-0.01,0.62-0.01
								S9.5,20.23,9.2,20.12z"/>
						</g>
						<g>
							<path class="st40" d="M9.75,19.39c-0.22,0.23-0.24,0.56-0.24,0.56s0.33-0.04,0.55-0.27c0.22-0.23,0.24-0.56,0.24-0.56
								S9.97,19.17,9.75,19.39z"/>
							<path class="st40" d="M10.12,19.86c-0.31-0.06-0.61,0.1-0.61,0.1s0.21,0.26,0.52,0.32c0.31,0.06,0.61-0.1,0.61-0.1
								S10.43,19.92,10.12,19.86z"/>
							<path class="st40" d="M10.51,18.99c-0.18,0.26-0.15,0.59-0.15,0.59s0.32-0.09,0.5-0.35c0.18-0.26,0.15-0.59,0.15-0.59
								S10.69,18.73,10.51,18.99z"/>
							<path class="st40" d="M10.95,19.38c-0.32-0.01-0.59,0.19-0.59,0.19s0.25,0.22,0.57,0.24c0.32,0.01,0.59-0.19,0.59-0.19
								S11.27,19.4,10.95,19.38z"/>
							<path class="st40" d="M11.2,18.42c-0.11,0.29,0,0.61,0,0.61s0.29-0.16,0.4-0.46c0.11-0.29,0-0.61,0-0.61
								S11.31,18.13,11.2,18.42z"/>
							<path class="st40" d="M11.73,18.71c-0.31,0.06-0.52,0.32-0.52,0.32s0.3,0.16,0.61,0.09c0.31-0.06,0.52-0.32,0.52-0.32
								S12.04,18.64,11.73,18.71z"/>
							<path class="st40" d="M11.77,17.71c-0.04,0.31,0.15,0.59,0.15,0.59s0.25-0.23,0.28-0.54c0.04-0.31-0.15-0.59-0.15-0.59
								S11.81,17.4,11.77,17.71z"/>
							<path class="st40" d="M12.35,17.87c-0.29,0.13-0.43,0.43-0.43,0.43s0.33,0.08,0.61-0.05c0.29-0.13,0.43-0.43,0.43-0.43
								S12.64,17.73,12.35,17.87z"/>
						</g>
						<g>
							<path class="st40" d="M12.18,16.92c0.03,0.31,0.26,0.55,0.26,0.55s0.19-0.27,0.17-0.58c-0.03-0.31-0.26-0.55-0.26-0.55
								S12.15,16.61,12.18,16.92z"/>
							<path class="st40" d="M12.78,16.96c-0.26,0.19-0.33,0.51-0.33,0.51s0.34,0.02,0.59-0.17c0.26-0.19,0.33-0.51,0.33-0.51
								S13.03,16.77,12.78,16.96z"/>
							<path class="st40" d="M12.42,16.12c0.08,0.3,0.35,0.5,0.35,0.5s0.15-0.3,0.07-0.6c-0.08-0.3-0.35-0.5-0.35-0.5
								S12.34,15.81,12.42,16.12z"/>
							<path class="st40" d="M13.01,16.06c-0.22,0.22-0.25,0.56-0.25,0.56s0.34-0.03,0.56-0.26c0.22-0.22,0.25-0.56,0.25-0.56
								S13.24,15.84,13.01,16.06z"/>
							<path class="st40" d="M12.44,15.25c0.15,0.28,0.46,0.4,0.46,0.4s0.07-0.32-0.08-0.6c-0.15-0.28-0.46-0.4-0.46-0.4
								S12.29,14.98,12.44,15.25z"/>
							<path class="st40" d="M13,15.06c-0.16,0.27-0.1,0.6-0.1,0.6s0.32-0.11,0.48-0.38c0.16-0.27,0.1-0.6,0.1-0.6
								S13.16,14.79,13,15.06z"/>
							<path class="st40" d="M12.27,14.35c0.21,0.23,0.54,0.28,0.54,0.28s-0.01-0.33-0.22-0.57s-0.54-0.28-0.54-0.28
								S12.06,14.12,12.27,14.35z"/>
							<path class="st40" d="M12.77,14.03c-0.09,0.3,0.04,0.6,0.04,0.6s0.28-0.18,0.37-0.48c0.09-0.3-0.04-0.6-0.04-0.6
								S12.87,13.73,12.77,14.03z"/>
						</g>
						<path class="st40" d="M11.96,13.63c0.26,0.18,0.6,0.15,0.6,0.15s-0.09-0.32-0.35-0.5c-0.26-0.18-0.6-0.15-0.6-0.15
							S11.7,13.44,11.96,13.63z"/>
						<path class="st40" d="M12.37,13.2c-0.02,0.31,0.18,0.58,0.18,0.58s0.23-0.24,0.25-0.55c0.02-0.31-0.18-0.58-0.18-0.58
							S12.39,12.89,12.37,13.2z"/>
						<path class="st40" d="M11.53,12.96c0.29,0.14,0.61,0.06,0.61,0.06s-0.14-0.3-0.42-0.44c-0.29-0.14-0.61-0.06-0.61-0.06
							S11.24,12.82,11.53,12.96z"/>
						<path class="st40" d="M11.87,12.48c0.03,0.31,0.27,0.54,0.27,0.54s0.19-0.27,0.16-0.59c-0.03-0.31-0.27-0.54-0.27-0.54
							S11.83,12.16,11.87,12.48z"/>
						<path class="st40" d="M11.3,12c-0.01,0.01-0.03,0.03-0.04,0.04c-0.01,0-0.01,0.01-0.02,0.01c1,0.85,1.63,2.08,1.63,3.45
							c0,2.56-2.21,4.64-4.92,4.64c-2.71,0-4.92-2.08-4.92-4.64c0-1.31,0.57-2.49,1.5-3.33c-0.03-0.01-0.05-0.02-0.08-0.03
							c-0.92,0.86-1.5,2.05-1.5,3.36c0,2.6,2.24,4.72,4.99,4.72c2.75,0,4.99-2.12,4.99-4.72C12.94,14.12,12.31,12.87,11.3,12z"/>
						<path class="st40" d="M5.02,12.34c-0.31,0.07-0.61-0.09-0.61-0.09s0.21-0.26,0.52-0.33c0.31-0.07,0.61,0.09,0.61,0.09
							S5.33,12.27,5.02,12.34z"/>
						<path class="st40" d="M4.81,11.79c-0.11,0.29-0.4,0.46-0.4,0.46s-0.12-0.31-0.01-0.61c0.11-0.29,0.4-0.46,0.4-0.46
							S4.91,11.49,4.81,11.79z"/>
						<path class="st40" d="M10.9,12.34c0.31,0.07,0.61-0.09,0.61-0.09s-0.21-0.26-0.52-0.33c-0.31-0.07-0.61,0.09-0.61,0.09
							S10.59,12.27,10.9,12.34z"/>
						<path class="st40" d="M11.11,11.79c0.11,0.29,0.4,0.46,0.4,0.46s0.12-0.31,0.01-0.61c-0.11-0.29-0.4-0.46-0.4-0.46
							S11,11.49,11.11,11.79z"/>
					</g>
					<path class="st34" d="M8.77,14.44c0.62,0.17,1.01,0.56,1.01,1.21c0,1.56-2.18,1.78-3.65,1.38l0.07-1.09
						c0.57,0.29,1.5,0.41,1.97,0.1c0.39-0.25,0.35-0.74,0.07-0.94c-0.31-0.22-0.8-0.13-1.25-0.15v-0.92h0.58
						c1.13,0,1.16-1.18-0.03-1.18c-0.4,0-0.8,0.09-1.19,0.23l-0.06-0.97c0.25-0.08,0.5-0.13,0.76-0.17
						c2.81-0.42,2.91,1.45,2.41,2.08C9.3,14.21,9.07,14.35,8.77,14.44z"/>
				</g>
			</g>
		</g>
	</g>
</g>
<g id="Layer_2">
</g>
<g id="Layer_3">
</g>
<g id="Layer_4">
</g>
</svg>
