<?xml version="1.0" encoding="utf-8"?>
<!-- Generator: Adobe Illustrator 25.0.1, SVG Export Plug-In . SVG Version: 6.00 Build 0)  -->
<svg version="1.1" xmlns="http://www.w3.org/2000/svg" xmlns:xlink="http://www.w3.org/1999/xlink" x="0px" y="0px"
	 viewBox="0 0 15.6 22.96" style="enable-background:new 0 0 15.6 22.96;" xml:space="preserve">
<style type="text/css">
	.st0{fill:url(#SVGID_1_);}
	.st1{clip-path:url(#SVGID_3_);}
	.st2{fill:#EA7127;}
	.st3{fill:#EA7236;}
	.st4{fill:url(#SVGID_4_);}
	.st5{clip-path:url(#SVGID_6_);}
	.st6{fill:#FFFEFC;}
	.st7{fill:#FFFFFF;}
	.st8{fill:#F6AA29;}
	.st9{fill:#211E1F;}
	.st10{fill:#CECFCF;}
	.st11{fill:#808081;}
	.st12{fill:#EF7126;}
	.st13{fill:#14AD4B;}
	.st14{fill:#EE6F25;}
	.st15{fill:#0668AF;}
	.st16{fill:#E16B26;}
	.st17{fill:#424E9C;}
	.st18{fill:#5969CF;}
	.st19{clip-path:url(#SVGID_8_);}
	.st20{fill:#FF930F;}
	.st21{fill:#AA3330;}
	.st22{fill:#F28F0E;}
	.st23{fill:#F9362D;}
	.st24{fill:#FCE0E0;}
	.st25{fill:#FFB10F;}
	.st26{fill:#FFDC01;}
	.st27{fill:#FFF375;}
	.st28{fill:#6B7384;}
	.st29{fill:#892020;}
	.st30{fill:#FF740D;}
	.st31{fill:#798093;}
	.st32{fill:#9EA8BA;}
	.st33{fill:#BAC6D8;}
	.st34{fill:#C95506;}
	.st35{fill:#8E2323;}
	.st36{fill:#7F0B0B;}
	.st37{fill:#EA7603;}
	.st38{fill:#FF9B50;}
	.st39{opacity:0.69;}
	.st40{fill:#FFB448;}
	.st41{fill:#4D4D4D;}
	.st42{fill:#EC7126;}
	.st43{fill:#FFFFFF;stroke:#D7D7D7;stroke-width:1.0983;stroke-miterlimit:10;}
	.st44{fill:#E3E3E3;stroke:#D7D7D7;stroke-width:1.0983;stroke-miterlimit:10;}
	.st45{fill:#808080;}
	.st46{fill:#FFFFFF;stroke:#D7D7D7;stroke-width:1.2915;stroke-miterlimit:10;}
	.st47{clip-path:url(#SVGID_10_);}
	.st48{fill:#B4360E;}
	.st49{fill:none;stroke:#FFFFFF;stroke-miterlimit:10;}
	.st50{fill:#F4A82B;}
	.st51{fill:#221F1F;}
	.st52{fill:#CACBCC;}
	.st53{fill:#11AA4B;}
	.st54{fill:#EC6F24;}
	.st55{fill:#0767AC;}
	.st56{fill:#E3E3E3;}
	.st57{fill:#32BA00;}
	.st58{fill:none;stroke:#D7D7D7;stroke-width:1.0983;stroke-miterlimit:10;}
	.st59{fill:#C14F10;}
	.st60{fill:#C20C04;}
	.st61{opacity:0.08;}
	.st62{fill:#FFB700;}
	.st63{fill:#FFDB14;}
	.st64{fill:none;stroke:#F2AD00;stroke-width:1.5;stroke-linecap:round;stroke-linejoin:round;stroke-dasharray:1.0126,6.0756;}
	.st65{fill:#FF2119;}
	.st66{fill:none;stroke:#F2AD00;stroke-linecap:round;stroke-linejoin:round;stroke-miterlimit:10;}
	.st67{fill:#E3E4E6;stroke:#D1D1D1;stroke-width:0.8392;stroke-miterlimit:10;}
	.st68{fill:none;stroke:#C7C7C7;stroke-linecap:round;stroke-linejoin:round;stroke-miterlimit:10;}
	.st69{fill:#E3E4E6;stroke:#000000;stroke-width:1.2897;stroke-miterlimit:10;}
	.st70{clip-path:url(#SVGID_12_);}
</style>
<g id="Layer_1">
	<g>
		<g>
			<g>
				<g>
					<polygon class="st29" points="13.2,0 10.61,6.33 5.25,6.33 7.63,0 					"/>
					<path class="st28" d="M10.86,5.24H5.05c-0.38,0-0.69,0.31-0.69,0.69v3.7h7.2v-3.7C11.55,5.55,11.24,5.24,10.86,5.24z
						 M11.04,6.59H4.73V6.31c0-0.31,0.25-0.56,0.56-0.56h5.19c0.31,0,0.56,0.25,0.56,0.56V6.59z"/>
					<polygon class="st23" points="2.75,0 5.25,6.33 10.61,6.33 8.17,0 					"/>
					<g>
						<polygon class="st30" points="6.23,6.33 3.68,0 3.27,0 5.83,6.33 						"/>
						<polygon class="st30" points="7.49,6.33 4.94,0 4.53,0 7.08,6.33 						"/>
						<polygon class="st30" points="8.69,6.33 6.14,0 5.73,0 8.28,6.33 						"/>
						<polygon class="st30" points="9.99,6.33 7.44,0 7.03,0 9.58,6.33 						"/>
					</g>
					
						<ellipse transform="matrix(0.1299 -0.9915 0.9915 0.1299 -8.2427 20.9264)" class="st31" cx="7.8" cy="15.16" rx="7.8" ry="7.8"/>
					<path class="st28" d="M7.8,7.36c-0.08,0-0.15,0-0.23,0c4.2,0.12,7.57,3.57,7.57,7.8c0,4.23-3.37,7.68-7.57,7.8
						c0.08,0,0.15,0,0.23,0c4.31,0,7.8-3.49,7.8-7.8C15.6,10.85,12.11,7.36,7.8,7.36z"/>
					
						<ellipse transform="matrix(0.1299 -0.9915 0.9915 0.1299 -8.2427 20.9264)" class="st32" cx="7.8" cy="15.16" rx="6.36" ry="6.36"/>
					<path class="st7" d="M7.6,16.27h1.95v0.96H6.06v-0.99c0.61-0.52,2.13-1.79,2.13-2.59c0-0.4-0.26-0.68-0.7-0.68
						c-0.44,0-0.88,0.17-1.27,0.37l-0.03-1.06c2.64-1.04,4.09,0.62,2.85,2.46C8.73,15.19,8.25,15.7,7.6,16.27z"/>
					<g>
						<g>
							<path class="st33" d="M7.02,19.58c0.25,0.2,0.32,0.52,0.32,0.52S7,20.11,6.75,19.92c-0.25-0.2-0.32-0.52-0.32-0.52
								S6.78,19.39,7.02,19.58z"/>
							<path class="st33" d="M6.72,20.09c0.3-0.1,0.62,0.01,0.62,0.01s-0.17,0.29-0.47,0.39c-0.3,0.1-0.62-0.01-0.62-0.01
								S6.42,20.2,6.72,20.09z"/>
						</g>
						<g>
							<path class="st33" d="M6.05,19.32c0.22,0.23,0.24,0.56,0.24,0.56s-0.33-0.04-0.55-0.27c-0.22-0.23-0.24-0.56-0.24-0.56
								S5.83,19.09,6.05,19.32z"/>
							<path class="st33" d="M5.68,19.78c0.31-0.06,0.61,0.1,0.61,0.1s-0.21,0.26-0.52,0.32c-0.31,0.06-0.61-0.1-0.61-0.1
								S5.37,19.85,5.68,19.78z"/>
							<path class="st33" d="M5.29,18.94c0.18,0.26,0.15,0.59,0.15,0.59s-0.32-0.09-0.5-0.35c-0.18-0.26-0.15-0.59-0.15-0.59
								S5.11,18.68,5.29,18.94z"/>
							<path class="st33" d="M4.85,19.34c0.32-0.01,0.59,0.19,0.59,0.19s-0.25,0.22-0.57,0.24c-0.32,0.01-0.59-0.19-0.59-0.19
								S4.53,19.35,4.85,19.34z"/>
							<path class="st33" d="M4.58,18.37c0.11,0.29,0,0.61,0,0.61s-0.29-0.16-0.4-0.46c-0.11-0.29,0-0.61,0-0.61
								S4.47,18.07,4.58,18.37z"/>
							<path class="st33" d="M4.05,18.65c0.31,0.06,0.52,0.32,0.52,0.32s-0.3,0.16-0.61,0.09C3.65,19,3.44,18.74,3.44,18.74
								S3.74,18.59,4.05,18.65z"/>
							<path class="st33" d="M4.04,17.7c0.04,0.31-0.15,0.59-0.15,0.59s-0.25-0.23-0.28-0.54c-0.04-0.31,0.15-0.59,0.15-0.59
								S4,17.39,4.04,17.7z"/>
							<path class="st33" d="M3.46,17.85c0.29,0.13,0.43,0.43,0.43,0.43s-0.33,0.08-0.61-0.05c-0.29-0.13-0.43-0.43-0.43-0.43
								S3.17,17.72,3.46,17.85z"/>
						</g>
						<g>
							<path class="st33" d="M3.58,16.86c-0.03,0.31-0.26,0.55-0.26,0.55s-0.19-0.27-0.17-0.58c0.03-0.31,0.26-0.55,0.26-0.55
								S3.6,16.55,3.58,16.86z"/>
							<path class="st33" d="M2.98,16.9c0.26,0.19,0.33,0.51,0.33,0.51s-0.34,0.02-0.59-0.17c-0.26-0.19-0.33-0.51-0.33-0.51
								S2.72,16.71,2.98,16.9z"/>
							<path class="st33" d="M3.34,16.06c-0.08,0.3-0.35,0.5-0.35,0.5s-0.15-0.3-0.07-0.6c0.08-0.3,0.35-0.5,0.35-0.5
								S3.41,15.75,3.34,16.06z"/>
							<path class="st33" d="M2.74,16c0.22,0.22,0.25,0.56,0.25,0.56s-0.34-0.03-0.56-0.26c-0.22-0.22-0.25-0.56-0.25-0.56
								S2.52,15.78,2.74,16z"/>
							<path class="st33" d="M3.31,15.17c-0.15,0.28-0.46,0.4-0.46,0.4s-0.07-0.32,0.08-0.6c0.15-0.28,0.46-0.4,0.46-0.4
								S3.46,14.89,3.31,15.17z"/>
							<path class="st33" d="M2.75,14.97c0.16,0.27,0.1,0.6,0.1,0.6s-0.32-0.11-0.48-0.38c-0.16-0.27-0.1-0.6-0.1-0.6
								S2.59,14.7,2.75,14.97z"/>
							<path class="st33" d="M3.47,14.27c-0.21,0.23-0.54,0.28-0.54,0.28s0.01-0.33,0.22-0.57c0.21-0.23,0.54-0.28,0.54-0.28
								S3.68,14.03,3.47,14.27z"/>
							<path class="st33" d="M2.97,13.95c0.09,0.3-0.04,0.6-0.04,0.6s-0.28-0.18-0.37-0.48c-0.09-0.3,0.04-0.6,0.04-0.6
								S2.88,13.64,2.97,13.95z"/>
						</g>
						<path class="st33" d="M3.8,13.53c-0.26,0.18-0.6,0.15-0.6,0.15s0.09-0.32,0.35-0.5c0.26-0.18,0.6-0.15,0.6-0.15
							S4.06,13.34,3.8,13.53z"/>
						<path class="st33" d="M3.38,13.1c0.02,0.31-0.18,0.58-0.18,0.58s-0.23-0.24-0.25-0.55c-0.02-0.31,0.18-0.58,0.18-0.58
							S3.36,12.79,3.38,13.1z"/>
						<path class="st33" d="M4.2,12.86c-0.29,0.14-0.61,0.06-0.61,0.06s0.14-0.3,0.42-0.44c0.29-0.14,0.61-0.06,0.61-0.06
							S4.49,12.72,4.2,12.86z"/>
						<path class="st33" d="M3.86,12.37c-0.03,0.31-0.27,0.54-0.27,0.54s-0.19-0.27-0.16-0.59c0.03-0.31,0.27-0.54,0.27-0.54
							S3.9,12.06,3.86,12.37z"/>
						<g>
							<path class="st33" d="M8.75,19.54c-0.25,0.2-0.32,0.52-0.32,0.52s0.34,0.01,0.59-0.19c0.25-0.2,0.32-0.52,0.32-0.52
								S9,19.35,8.75,19.54z"/>
							<path class="st33" d="M9.05,20.05c-0.3-0.1-0.62,0.01-0.62,0.01s0.17,0.29,0.47,0.39c0.3,0.1,0.62-0.01,0.62-0.01
								S9.35,20.15,9.05,20.05z"/>
						</g>
						<g>
							<path class="st33" d="M9.6,19.32c-0.22,0.23-0.24,0.56-0.24,0.56s0.33-0.04,0.55-0.27c0.22-0.23,0.24-0.56,0.24-0.56
								S9.82,19.09,9.6,19.32z"/>
							<path class="st33" d="M9.97,19.78c-0.31-0.06-0.61,0.1-0.61,0.1s0.21,0.26,0.52,0.32c0.31,0.06,0.61-0.1,0.61-0.1
								S10.28,19.85,9.97,19.78z"/>
							<path class="st33" d="M10.36,18.91c-0.18,0.26-0.15,0.59-0.15,0.59s0.32-0.09,0.5-0.35c0.18-0.26,0.15-0.59,0.15-0.59
								S10.54,18.65,10.36,18.91z"/>
							<path class="st33" d="M10.8,19.31c-0.32-0.01-0.59,0.19-0.59,0.19s0.25,0.22,0.57,0.24c0.32,0.01,0.59-0.19,0.59-0.19
								S11.12,19.32,10.8,19.31z"/>
							<path class="st33" d="M11.05,18.35c-0.11,0.29,0,0.61,0,0.61s0.29-0.16,0.4-0.46c0.11-0.29,0-0.61,0-0.61
								S11.16,18.06,11.05,18.35z"/>
							<path class="st33" d="M11.58,18.63c-0.31,0.06-0.52,0.32-0.52,0.32s0.3,0.16,0.61,0.09c0.31-0.06,0.52-0.32,0.52-0.32
								S11.89,18.57,11.58,18.63z"/>
							<path class="st33" d="M11.62,17.64c-0.04,0.31,0.15,0.59,0.15,0.59s0.25-0.23,0.28-0.54c0.04-0.31-0.15-0.59-0.15-0.59
								S11.66,17.33,11.62,17.64z"/>
							<path class="st33" d="M12.2,17.79c-0.29,0.13-0.43,0.43-0.43,0.43s0.33,0.08,0.61-0.05c0.29-0.13,0.43-0.43,0.43-0.43
								S12.49,17.66,12.2,17.79z"/>
						</g>
						<g>
							<path class="st33" d="M12.03,16.84c0.03,0.31,0.26,0.55,0.26,0.55s0.19-0.27,0.17-0.58c-0.03-0.31-0.26-0.55-0.26-0.55
								S12,16.53,12.03,16.84z"/>
							<path class="st33" d="M12.63,16.88c-0.26,0.19-0.33,0.51-0.33,0.51s0.34,0.02,0.59-0.17c0.26-0.19,0.33-0.51,0.33-0.51
								S12.88,16.69,12.63,16.88z"/>
							<path class="st33" d="M12.27,16.04c0.08,0.3,0.35,0.5,0.35,0.5s0.15-0.3,0.07-0.6c-0.08-0.3-0.35-0.5-0.35-0.5
								S12.19,15.74,12.27,16.04z"/>
							<path class="st33" d="M12.86,15.99c-0.22,0.22-0.25,0.56-0.25,0.56s0.34-0.03,0.56-0.26c0.22-0.22,0.25-0.56,0.25-0.56
								S13.08,15.76,12.86,15.99z"/>
							<path class="st33" d="M12.29,15.18c0.15,0.28,0.46,0.4,0.46,0.4s0.07-0.32-0.08-0.6c-0.15-0.28-0.46-0.4-0.46-0.4
								S12.14,14.9,12.29,15.18z"/>
							<path class="st33" d="M12.85,14.98c-0.16,0.27-0.1,0.6-0.1,0.6s0.32-0.11,0.48-0.38c0.16-0.27,0.1-0.6,0.1-0.6
								S13.01,14.71,12.85,14.98z"/>
							<path class="st33" d="M12.12,14.28c0.21,0.23,0.54,0.28,0.54,0.28s-0.01-0.33-0.22-0.57c-0.21-0.23-0.54-0.28-0.54-0.28
								S11.91,14.04,12.12,14.28z"/>
							<path class="st33" d="M12.62,13.96c-0.09,0.3,0.04,0.6,0.04,0.6s0.28-0.18,0.37-0.48c0.09-0.3-0.04-0.6-0.04-0.6
								S12.71,13.66,12.62,13.96z"/>
						</g>
						<path class="st33" d="M11.81,13.55c0.26,0.18,0.6,0.15,0.6,0.15s-0.09-0.32-0.35-0.5c-0.26-0.18-0.6-0.15-0.6-0.15
							S11.55,13.37,11.81,13.55z"/>
						<path class="st33" d="M12.22,13.13c-0.02,0.31,0.18,0.58,0.18,0.58s0.23-0.24,0.25-0.55c0.02-0.31-0.18-0.58-0.18-0.58
							S12.24,12.81,12.22,13.13z"/>
						<path class="st33" d="M11.37,12.89c0.29,0.14,0.61,0.06,0.61,0.06s-0.14-0.3-0.42-0.44c-0.29-0.14-0.61-0.06-0.61-0.06
							S11.09,12.75,11.37,12.89z"/>
						<path class="st33" d="M11.71,12.4c0.03,0.31,0.27,0.54,0.27,0.54s0.19-0.27,0.16-0.59c-0.03-0.31-0.27-0.54-0.27-0.54
							S11.68,12.09,11.71,12.4z"/>
						<path class="st33" d="M11.14,11.93c-0.01,0.01-0.03,0.03-0.04,0.04c0,0-0.01,0.01-0.02,0.01c1,0.85,1.63,2.08,1.63,3.45
							c0,2.56-2.21,4.64-4.92,4.64c-2.71,0-4.92-2.08-4.92-4.64c0-1.31,0.57-2.49,1.5-3.33c-0.03-0.01-0.05-0.02-0.08-0.03
							c-0.92,0.86-1.5,2.05-1.5,3.36c0,2.6,2.24,4.72,4.99,4.72c2.75,0,4.99-2.12,4.99-4.72C12.79,14.04,12.15,12.79,11.14,11.93z"
							/>
						<path class="st33" d="M4.87,12.26c-0.31,0.07-0.61-0.09-0.61-0.09s0.21-0.26,0.52-0.33c0.31-0.07,0.61,0.09,0.61,0.09
							S5.18,12.2,4.87,12.26z"/>
						<path class="st33" d="M4.66,11.71c-0.11,0.29-0.4,0.46-0.4,0.46s-0.12-0.31-0.01-0.61c0.11-0.29,0.4-0.46,0.4-0.46
							S4.76,11.42,4.66,11.71z"/>
						<path class="st33" d="M10.75,12.26c0.31,0.07,0.61-0.09,0.61-0.09s-0.21-0.26-0.52-0.33c-0.31-0.07-0.61,0.09-0.61,0.09
							S10.44,12.2,10.75,12.26z"/>
						<path class="st33" d="M10.96,11.71c0.11,0.29,0.4,0.46,0.4,0.46s0.12-0.31,0.01-0.61c-0.11-0.29-0.4-0.46-0.4-0.46
							S10.85,11.42,10.96,11.71z"/>
					</g>
				</g>
			</g>
		</g>
	</g>
</g>
<g id="Layer_2">
</g>
<g id="Layer_3">
</g>
<g id="Layer_4">
</g>
</svg>
