<?xml version="1.0" encoding="utf-8"?>
<!-- Generator: Adobe Illustrator 25.0.1, SVG Export Plug-In . SVG Version: 6.00 Build 0)  -->
<svg version="1.1" xmlns="http://www.w3.org/2000/svg" xmlns:xlink="http://www.w3.org/1999/xlink" x="0px" y="0px"
	 viewBox="0 0 21.54 31.7" style="enable-background:new 0 0 21.54 31.7;" xml:space="preserve">
<style type="text/css">
	.st0{fill:url(#SVGID_1_);}
	.st1{clip-path:url(#SVGID_3_);}
	.st2{fill:#EA7127;}
	.st3{fill:#EA7236;}
	.st4{fill:url(#SVGID_4_);}
	.st5{clip-path:url(#SVGID_6_);}
	.st6{fill:#FFFEFC;}
	.st7{fill:#FFFFFF;}
	.st8{fill:#F6AA29;}
	.st9{fill:#211E1F;}
	.st10{fill:#CECFCF;}
	.st11{fill:#808081;}
	.st12{fill:#EF7126;}
	.st13{fill:#14AD4B;}
	.st14{fill:#EE6F25;}
	.st15{fill:#0668AF;}
	.st16{fill:#E16B26;}
	.st17{fill:#424E9C;}
	.st18{fill:#5969CF;}
	.st19{clip-path:url(#SVGID_8_);}
	.st20{fill:#FF930F;}
	.st21{fill:#AA3330;}
	.st22{fill:#F28F0E;}
	.st23{fill:#F9362D;}
	.st24{fill:#FCE0E0;}
	.st25{fill:#FFB10F;}
	.st26{fill:#FFDC01;}
	.st27{fill:#FFF375;}
	.st28{fill:#6B7384;}
	.st29{fill:#892020;}
	.st30{fill:#FF740D;}
	.st31{fill:#798093;}
	.st32{fill:#9EA8BA;}
	.st33{fill:#BAC6D8;}
	.st34{fill:#C95506;}
	.st35{fill:#8E2323;}
	.st36{fill:#7F0B0B;}
	.st37{fill:#EA7603;}
	.st38{fill:#FF9B50;}
	.st39{opacity:0.69;}
	.st40{fill:#FFB448;}
	.st41{fill:#4D4D4D;}
	.st42{fill:#EC7126;}
	.st43{fill:#FFFFFF;stroke:#D7D7D7;stroke-width:1.0983;stroke-miterlimit:10;}
	.st44{fill:#E3E3E3;stroke:#D7D7D7;stroke-width:1.0983;stroke-miterlimit:10;}
	.st45{fill:#808080;}
	.st46{fill:#FFFFFF;stroke:#D7D7D7;stroke-width:1.2915;stroke-miterlimit:10;}
	.st47{clip-path:url(#SVGID_10_);}
	.st48{fill:#B4360E;}
	.st49{fill:none;stroke:#FFFFFF;stroke-miterlimit:10;}
	.st50{fill:#F4A82B;}
	.st51{fill:#221F1F;}
	.st52{fill:#CACBCC;}
	.st53{fill:#11AA4B;}
	.st54{fill:#EC6F24;}
	.st55{fill:#0767AC;}
	.st56{fill:#E3E3E3;}
	.st57{fill:#32BA00;}
	.st58{fill:none;stroke:#D7D7D7;stroke-width:1.0983;stroke-miterlimit:10;}
	.st59{fill:#C14F10;}
	.st60{fill:#C20C04;}
	.st61{opacity:0.08;}
	.st62{fill:#FFB700;}
	.st63{fill:#FFDB14;}
	.st64{fill:none;stroke:#F2AD00;stroke-width:1.5;stroke-linecap:round;stroke-linejoin:round;stroke-dasharray:1.0126,6.0756;}
	.st65{fill:#FF2119;}
	.st66{fill:none;stroke:#F2AD00;stroke-linecap:round;stroke-linejoin:round;stroke-miterlimit:10;}
	.st67{fill:#E3E4E6;stroke:#D1D1D1;stroke-width:0.8392;stroke-miterlimit:10;}
	.st68{fill:none;stroke:#C7C7C7;stroke-linecap:round;stroke-linejoin:round;stroke-miterlimit:10;}
	.st69{fill:#E3E4E6;stroke:#000000;stroke-width:1.2897;stroke-miterlimit:10;}
	.st70{clip-path:url(#SVGID_12_);}
</style>
<g id="Layer_1">
	<g>
		<g>
			<g>
				<g>
					<polygon class="st21" points="18.22,0 14.65,8.74 7.24,8.74 10.54,0 					"/>
					<path class="st22" d="M14.99,7.23H6.97c-0.53,0-0.95,0.43-0.95,0.95v5.11h9.93V8.18C15.95,7.66,15.52,7.23,14.99,7.23z
						 M15.24,9.1H6.54V8.71c0-0.42,0.34-0.77,0.77-0.77h7.17c0.42,0,0.77,0.34,0.77,0.77V9.1z"/>
					<polygon class="st23" points="3.79,0 7.24,8.74 14.65,8.74 11.28,0 					"/>
					<g>
						<polygon class="st24" points="8.96,8.74 5.17,0 4.74,0 8.53,8.74 						"/>
						<polygon class="st24" points="10.56,8.74 6.77,0 6.35,0 10.13,8.74 						"/>
						<polygon class="st24" points="12.33,8.74 8.55,0 8.12,0 11.9,8.74 						"/>
						<polygon class="st24" points="13.9,8.74 10.11,0 9.68,0 13.47,8.74 						"/>
					</g>
					
						<ellipse transform="matrix(0.4472 -0.8944 0.8944 0.4472 -12.7637 21.2015)" class="st25" cx="10.77" cy="20.93" rx="10.77" ry="10.77"/>
					<path class="st20" d="M19.43,14.52c1.09,1.68,1.72,3.69,1.72,5.84c0,5.95-4.82,10.77-10.77,10.77c-3.55,0-6.7-1.72-8.66-4.37
						c1.92,2.97,5.26,4.93,9.05,4.93c5.95,0,10.77-4.82,10.77-10.77C21.54,18.53,20.76,16.31,19.43,14.52z"/>
					
						<ellipse transform="matrix(0.4472 -0.8944 0.8944 0.4472 -12.7637 21.2015)" class="st26" cx="10.77" cy="20.93" rx="8.78" ry="8.78"/>
					<g>
						<g>
							<path class="st27" d="M9.7,26.9c0.34,0.27,0.43,0.72,0.43,0.72s-0.47,0.01-0.81-0.26c-0.34-0.27-0.43-0.72-0.43-0.72
								S9.35,26.63,9.7,26.9z"/>
							<path class="st27" d="M9.28,27.61c0.41-0.14,0.85,0.02,0.85,0.02s-0.24,0.39-0.65,0.54c-0.41,0.14-0.85-0.02-0.85-0.02
								S8.87,27.75,9.28,27.61z"/>
						</g>
						<g>
							<path class="st27" d="M8.36,26.54c0.3,0.31,0.33,0.77,0.33,0.77s-0.46-0.05-0.76-0.37c-0.3-0.31-0.33-0.77-0.33-0.77
								S8.05,26.23,8.36,26.54z"/>
							<path class="st27" d="M7.85,27.18c0.43-0.09,0.84,0.13,0.84,0.13s-0.29,0.36-0.72,0.44c-0.43,0.09-0.84-0.13-0.84-0.13
								S7.42,27.27,7.85,27.18z"/>
							<path class="st27" d="M7.3,26.02c0.25,0.36,0.2,0.81,0.2,0.81s-0.45-0.12-0.7-0.48c-0.25-0.36-0.2-0.81-0.2-0.81
								S7.05,25.66,7.3,26.02z"/>
							<path class="st27" d="M6.7,26.57c0.44-0.02,0.81,0.26,0.81,0.26s-0.34,0.31-0.78,0.33c-0.44,0.02-0.81-0.26-0.81-0.26
								S6.26,26.59,6.7,26.57z"/>
							<path class="st27" d="M6.32,25.22c0.15,0.41,0,0.84,0,0.84s-0.4-0.23-0.56-0.63c-0.15-0.41,0-0.84,0-0.84
								S6.16,24.82,6.32,25.22z"/>
							<path class="st27" d="M5.59,25.61c0.43,0.09,0.72,0.45,0.72,0.45s-0.41,0.22-0.84,0.13c-0.43-0.09-0.72-0.45-0.72-0.45
								S5.16,25.53,5.59,25.61z"/>
							<path class="st27" d="M5.57,24.3c0.05,0.43-0.2,0.81-0.2,0.81s-0.34-0.31-0.39-0.74c-0.05-0.43,0.2-0.81,0.2-0.81
								S5.52,23.87,5.57,24.3z"/>
							<path class="st27" d="M4.77,24.51c0.4,0.18,0.59,0.6,0.59,0.6s-0.45,0.12-0.85-0.07c-0.4-0.18-0.59-0.6-0.59-0.6
								S4.38,24.33,4.77,24.51z"/>
						</g>
						<g>
							<path class="st27" d="M4.94,23.14C4.9,23.57,4.57,23.9,4.57,23.9s-0.27-0.37-0.23-0.81c0.04-0.43,0.36-0.76,0.36-0.76
								S4.97,22.71,4.94,23.14z"/>
							<path class="st27" d="M4.11,23.2c0.35,0.26,0.46,0.7,0.46,0.7s-0.46,0.03-0.82-0.23c-0.35-0.26-0.46-0.7-0.46-0.7
								S3.76,22.94,4.11,23.2z"/>
							<path class="st27" d="M4.61,22.04c-0.11,0.42-0.48,0.69-0.48,0.69s-0.2-0.41-0.1-0.83c0.11-0.42,0.48-0.69,0.48-0.69
								S4.71,21.62,4.61,22.04z"/>
							<path class="st27" d="M3.79,21.96c0.31,0.31,0.34,0.77,0.34,0.77s-0.46-0.05-0.77-0.36c-0.31-0.31-0.34-0.77-0.34-0.77
								S3.48,21.65,3.79,21.96z"/>
							<path class="st27" d="M4.57,20.81c-0.21,0.38-0.64,0.55-0.64,0.55s-0.1-0.45,0.11-0.83c0.21-0.38,0.64-0.55,0.64-0.55
								S4.78,20.42,4.57,20.81z"/>
							<path class="st27" d="M3.79,20.54c0.22,0.37,0.14,0.83,0.14,0.83s-0.44-0.16-0.66-0.53c-0.22-0.37-0.14-0.83-0.14-0.83
								S3.57,20.16,3.79,20.54z"/>
							<path class="st27" d="M4.79,19.56c-0.29,0.32-0.75,0.39-0.75,0.39s0.01-0.46,0.3-0.78c0.29-0.32,0.75-0.39,0.75-0.39
								S5.08,19.24,4.79,19.56z"/>
							<path class="st27" d="M4.1,19.12c0.13,0.41-0.06,0.83-0.06,0.83s-0.39-0.25-0.51-0.67c-0.13-0.41,0.06-0.83,0.06-0.83
								S3.97,18.71,4.1,19.12z"/>
						</g>
						<path class="st27" d="M5.24,18.54c-0.36,0.25-0.82,0.21-0.82,0.21s0.12-0.44,0.48-0.69c0.36-0.25,0.82-0.21,0.82-0.21
							S5.6,18.29,5.24,18.54z"/>
						<path class="st27" d="M4.67,17.95c0.03,0.43-0.25,0.8-0.25,0.8s-0.32-0.33-0.35-0.76c-0.03-0.43,0.25-0.8,0.25-0.8
							S4.64,17.52,4.67,17.95z"/>
						<path class="st27" d="M5.8,17.62c-0.39,0.19-0.85,0.08-0.85,0.08s0.19-0.42,0.58-0.61c0.39-0.19,0.85-0.08,0.85-0.08
							S6.2,17.43,5.8,17.62z"/>
						<path class="st27" d="M5.33,16.95c-0.04,0.43-0.38,0.75-0.38,0.75s-0.26-0.38-0.22-0.81c0.04-0.43,0.38-0.75,0.38-0.75
							S5.38,16.52,5.33,16.95z"/>
						<g>
							<path class="st27" d="M12.08,26.84c-0.34,0.27-0.43,0.72-0.43,0.72s0.47,0.01,0.81-0.26c0.34-0.27,0.43-0.72,0.43-0.72
								S12.42,26.57,12.08,26.84z"/>
							<path class="st27" d="M12.5,27.55c-0.41-0.14-0.85,0.02-0.85,0.02s0.24,0.39,0.65,0.54c0.41,0.14,0.85-0.02,0.85-0.02
								S12.91,27.69,12.5,27.55z"/>
						</g>
						<g>
							<path class="st27" d="M13.25,26.54c-0.3,0.31-0.33,0.77-0.33,0.77s0.46-0.05,0.76-0.37c0.3-0.31,0.33-0.77,0.33-0.77
								S13.55,26.23,13.25,26.54z"/>
							<path class="st27" d="M13.76,27.18c-0.43-0.09-0.84,0.13-0.84,0.13s0.29,0.36,0.72,0.44c0.43,0.09,0.84-0.13,0.84-0.13
								S14.19,27.27,13.76,27.18z"/>
							<path class="st27" d="M14.3,25.97c-0.25,0.36-0.2,0.81-0.2,0.81s0.45-0.12,0.7-0.48c0.25-0.36,0.2-0.81,0.2-0.81
								S14.55,25.62,14.3,25.97z"/>
							<path class="st27" d="M14.91,26.53c-0.44-0.02-0.81,0.26-0.81,0.26s0.34,0.31,0.78,0.33c0.44,0.02,0.81-0.26,0.81-0.26
								S15.35,26.54,14.91,26.53z"/>
							<path class="st27" d="M15.26,25.2c-0.15,0.41,0,0.84,0,0.84s0.4-0.23,0.56-0.63c0.15-0.41,0-0.84,0-0.84
								S15.41,24.79,15.26,25.2z"/>
							<path class="st27" d="M15.98,25.59c-0.43,0.09-0.72,0.45-0.72,0.45s0.41,0.22,0.84,0.13c0.43-0.09,0.72-0.45,0.72-0.45
								S16.41,25.5,15.98,25.59z"/>
							<path class="st27" d="M16.04,24.22c-0.05,0.43,0.2,0.81,0.2,0.81s0.34-0.31,0.39-0.74c0.05-0.43-0.2-0.81-0.2-0.81
								S16.09,23.79,16.04,24.22z"/>
							<path class="st27" d="M16.84,24.43c-0.4,0.18-0.59,0.6-0.59,0.6s0.45,0.12,0.85-0.07c0.4-0.18,0.59-0.6,0.59-0.6
								S17.24,24.25,16.84,24.43z"/>
						</g>
						<g>
							<path class="st27" d="M16.61,23.12c0.04,0.43,0.36,0.76,0.36,0.76s0.27-0.37,0.23-0.81c-0.04-0.43-0.36-0.76-0.36-0.76
								S16.57,22.69,16.61,23.12z"/>
							<path class="st27" d="M17.43,23.17c-0.35,0.26-0.46,0.7-0.46,0.7s0.46,0.03,0.82-0.23c0.35-0.26,0.46-0.7,0.46-0.7
								S17.78,22.92,17.43,23.17z"/>
							<path class="st27" d="M16.93,22.01c0.11,0.42,0.48,0.69,0.48,0.69s0.2-0.41,0.1-0.83c-0.11-0.42-0.48-0.69-0.48-0.69
								S16.83,21.59,16.93,22.01z"/>
							<path class="st27" d="M17.76,21.94c-0.31,0.31-0.34,0.77-0.34,0.77s0.46-0.05,0.77-0.36c0.31-0.31,0.34-0.77,0.34-0.77
								S18.06,21.63,17.76,21.94z"/>
							<path class="st27" d="M16.96,20.82c0.21,0.38,0.64,0.55,0.64,0.55s0.1-0.45-0.11-0.83c-0.21-0.38-0.64-0.55-0.64-0.55
								S16.76,20.44,16.96,20.82z"/>
							<path class="st27" d="M17.74,20.55c-0.22,0.37-0.14,0.83-0.14,0.83s0.44-0.16,0.66-0.53c0.22-0.37,0.14-0.83,0.14-0.83
								S17.96,20.18,17.74,20.55z"/>
							<path class="st27" d="M16.73,19.58c0.29,0.32,0.75,0.39,0.75,0.39s-0.01-0.46-0.3-0.78c-0.29-0.32-0.75-0.39-0.75-0.39
								S16.44,19.26,16.73,19.58z"/>
							<path class="st27" d="M17.43,19.14c-0.13,0.41,0.06,0.83,0.06,0.83s0.39-0.25,0.51-0.67c0.13-0.41-0.06-0.83-0.06-0.83
								S17.55,18.72,17.43,19.14z"/>
						</g>
						<path class="st27" d="M16.3,18.58c0.36,0.25,0.82,0.21,0.82,0.21S17,18.35,16.64,18.1c-0.36-0.25-0.82-0.21-0.82-0.21
							S15.94,18.33,16.3,18.58z"/>
						<path class="st27" d="M16.87,17.99c-0.03,0.43,0.25,0.8,0.25,0.8s0.32-0.33,0.35-0.76c0.03-0.43-0.25-0.8-0.25-0.8
							S16.89,17.56,16.87,17.99z"/>
						<path class="st27" d="M15.7,17.66c0.39,0.19,0.85,0.08,0.85,0.08s-0.19-0.42-0.58-0.61c-0.39-0.19-0.85-0.08-0.85-0.08
							S15.31,17.47,15.7,17.66z"/>
						<path class="st27" d="M16.17,16.99c0.04,0.43,0.38,0.75,0.38,0.75s0.26-0.38,0.22-0.81c-0.04-0.43-0.38-0.75-0.38-0.75
							S16.13,16.56,16.17,16.99z"/>
						<path class="st27" d="M15.38,16.34c-0.02,0.02-0.04,0.04-0.06,0.05c-0.01,0.01-0.01,0.01-0.02,0.01
							c1.38,1.17,2.25,2.87,2.25,4.76c0,3.53-3.04,6.41-6.79,6.41c-3.74,0-6.79-2.87-6.79-6.41c0-1.8,0.79-3.43,2.07-4.6
							c-0.04-0.01-0.07-0.02-0.11-0.04c-1.27,1.18-2.07,2.83-2.07,4.64c0,3.59,3.09,6.51,6.9,6.51c3.8,0,6.9-2.92,6.9-6.51
							C17.66,19.25,16.78,17.53,15.38,16.34z"/>
						<path class="st27" d="M6.72,16.8c-0.43,0.09-0.84-0.12-0.84-0.12s0.29-0.36,0.72-0.45c0.43-0.09,0.84,0.12,0.84,0.12
							S7.15,16.71,6.72,16.8z"/>
						<path class="st27" d="M6.43,16.04c-0.15,0.41-0.55,0.64-0.55,0.64s-0.16-0.43-0.01-0.84c0.15-0.41,0.55-0.64,0.55-0.64
							S6.58,15.63,6.43,16.04z"/>
						<path class="st27" d="M14.83,16.8c0.43,0.09,0.84-0.12,0.84-0.12s-0.29-0.36-0.72-0.45c-0.43-0.09-0.84,0.12-0.84,0.12
							S14.4,16.71,14.83,16.8z"/>
						<path class="st27" d="M15.13,16.04c0.15,0.41,0.55,0.64,0.55,0.64s0.16-0.43,0.01-0.84c-0.15-0.41-0.55-0.64-0.55-0.64
							S14.98,15.63,15.13,16.04z"/>
					</g>
					<path class="st7" d="M10.39,17.07h1.51v7.3h-1.78v-5.33l-1.36,0.92L7.91,18.7L10.39,17.07z"/>
				</g>
			</g>
		</g>
	</g>
</g>
<g id="Layer_2">
</g>
<g id="Layer_3">
</g>
<g id="Layer_4">
</g>
</svg>
